<svg xmlns="http://www.w3.org/2000/svg" width="200" height="200" viewBox="0 0 200 200" role="img" aria-label="ACTION">
  <defs>
    <linearGradient id="bg" x1="0" y1="0" x2="1" y2="1">
      <stop offset="0%" stop-color="#ff4d6d"/>
      <stop offset="100%" stop-color="#ffbe0b"/>
    </linearGradient>
    <linearGradient id="chip" x1="0" y1="0" x2="0" y2="1">
      <stop offset="0%" stop-color="#0f172a" stop-opacity="0.28"/>
      <stop offset="100%" stop-color="#0f172a" stop-opacity="0.48"/>
    </linearGradient>
  </defs>
  <rect width="200" height="200" rx="24" fill="url(#bg)"/>
  <circle cx="34" cy="30" r="22" fill="#ffffff" opacity="0.14"/>
  <circle cx="170" cy="46" r="16" fill="#ffffff" opacity="0.10"/>
  <circle cx="156" cy="152" r="26" fill="#ffffff" opacity="0.08"/>
  <rect x="16" y="20" width="168" height="122" rx="18" fill="#0b1220" opacity="0.16"/>
  <polygon points="100,45 114,81 154,81 122,104 134,140 100,118 66,140 78,104 46,81 86,81" fill="#ffe7a6" opacity="0.95"/>
  <rect x="82" y="74" width="36" height="78" rx="10" fill="#ffe7a6" opacity="0.45" transform="rotate(-24 100 113)"/>
  <rect x="16" y="148" width="168" height="36" rx="12" fill="url(#chip)"/>
  <text x="100" y="171" text-anchor="middle" font-family="Verdana, sans-serif" font-size="16" font-weight="700" fill="#ffffff" letter-spacing="1">ACTION</text>
</svg>