<svg xmlns="http://www.w3.org/2000/svg" width="200" height="200" viewBox="0 0 200 200" role="img" aria-label="ADVENTURE">
  <defs>
    <linearGradient id="bg" x1="0" y1="0" x2="1" y2="1">
      <stop offset="0%" stop-color="#00b4d8"/>
      <stop offset="100%" stop-color="#90e0ef"/>
    </linearGradient>
    <linearGradient id="chip" x1="0" y1="0" x2="0" y2="1">
      <stop offset="0%" stop-color="#0f172a" stop-opacity="0.28"/>
      <stop offset="100%" stop-color="#0f172a" stop-opacity="0.48"/>
    </linearGradient>
  </defs>
  <rect width="200" height="200" rx="24" fill="url(#bg)"/>
  <circle cx="34" cy="30" r="22" fill="#ffffff" opacity="0.14"/>
  <circle cx="170" cy="46" r="16" fill="#ffffff" opacity="0.10"/>
  <circle cx="156" cy="152" r="26" fill="#ffffff" opacity="0.08"/>
  <rect x="16" y="20" width="168" height="122" rx="18" fill="#0b1220" opacity="0.16"/>
  <polygon points="38,128 82,74 110,110 126,91 162,128" fill="#d9f6ff" opacity="0.85"/>
  <polygon points="82,74 90,88 74,88" fill="#ffffff" opacity="0.8"/>
  <line x1="126" y1="91" x2="126" y2="58" stroke="#d9f6ff" stroke-width="6"/>
  <polygon points="126,58 148,66 126,74" fill="#d9f6ff"/>
  <rect x="16" y="148" width="168" height="36" rx="12" fill="url(#chip)"/>
  <text x="100" y="171" text-anchor="middle" font-family="Verdana, sans-serif" font-size="16" font-weight="700" fill="#ffffff" letter-spacing="1">ADVENTURE</text>
</svg>