<svg xmlns="http://www.w3.org/2000/svg" width="200" height="200" viewBox="0 0 200 200" role="img" aria-label="CARD">
  <defs>
    <linearGradient id="bg" x1="0" y1="0" x2="1" y2="1">
      <stop offset="0%" stop-color="#2a9d8f"/>
      <stop offset="100%" stop-color="#8ab17d"/>
    </linearGradient>
    <linearGradient id="chip" x1="0" y1="0" x2="0" y2="1">
      <stop offset="0%" stop-color="#0f172a" stop-opacity="0.28"/>
      <stop offset="100%" stop-color="#0f172a" stop-opacity="0.48"/>
    </linearGradient>
  </defs>
  <rect width="200" height="200" rx="24" fill="url(#bg)"/>
  <circle cx="34" cy="30" r="22" fill="#ffffff" opacity="0.14"/>
  <circle cx="170" cy="46" r="16" fill="#ffffff" opacity="0.10"/>
  <circle cx="156" cy="152" r="26" fill="#ffffff" opacity="0.08"/>
  <rect x="16" y="20" width="168" height="122" rx="18" fill="#0b1220" opacity="0.16"/>
  <rect x="55" y="66" width="62" height="86" rx="10" fill="#dff7e9" opacity="0.72"/>
  <rect x="85" y="54" width="62" height="86" rx="10" fill="#dff7e9" opacity="0.95"/>
  <polygon points="101,77 108,88 120,88 110,96 114,109 101,101 88,109 92,96 82,88 94,88" fill="#ffffff" opacity="0.9"/>
  <rect x="16" y="148" width="168" height="36" rx="12" fill="url(#chip)"/>
  <text x="100" y="171" text-anchor="middle" font-family="Verdana, sans-serif" font-size="16" font-weight="700" fill="#ffffff" letter-spacing="1">CARD</text>
</svg>