<svg xmlns="http://www.w3.org/2000/svg" width="96" height="96" viewBox="0 0 96 96" role="img" aria-label="All games icon">
  <defs>
    <linearGradient id="bg" x1="0" y1="0" x2="1" y2="1">
      <stop offset="0%" stop-color="#6f79ff"/>
      <stop offset="100%" stop-color="#5f6de8"/>
    </linearGradient>
  </defs>
  <rect width="96" height="96" rx="22" fill="url(#bg)"/>
  <rect x="14" y="14" width="68" height="68" rx="16" fill="#0f172a" opacity="0.14"/>
  <path d="M27 55c0-6.7 5.4-12 12-12h18c6.6 0 12 5.3 12 12 0 4.4-3.6 8-8 8-2.4 0-4.4-1.1-5.9-2.8L51 56h-6l-4.1 4.2A7.9 7.9 0 0 1 35 63c-4.4 0-8-3.6-8-8z" fill="#ffffff"/>
  <rect x="38" y="47" width="3.5" height="13" rx="1.5" fill="#5f6de8"/>
  <rect x="33.5" y="51.5" width="13" height="3.5" rx="1.5" fill="#5f6de8"/>
  <circle cx="58.5" cy="52" r="2.8" fill="#5f6de8"/>
  <circle cx="64.5" cy="56" r="2.8" fill="#5f6de8"/>
  <circle cx="28" cy="28" r="9" fill="#ffffff" opacity="0.12"/>
</svg>
