<svg width="20" height="20" viewBox="0 0 20 20" fill="none" xmlns="http://www.w3.org/2000/svg">
    <path
        d="M19.773 8.82503L11.6327 0.631167C11.6223 0.62062 11.6115 0.610386 11.6005 0.600464C10.7116 -0.197622 9.36843 -0.200473 8.47617 0.593863C8.46507 0.603745 8.45429 0.613941 8.44378 0.624409L0.229371 8.82265C-0.0760201 9.1275 -0.0765279 9.62214 0.228277 9.92753C0.533121 10.2329 1.02777 10.2334 1.33312 9.92863L1.95312 9.30984V16.0553C1.95312 17.7784 3.355 19.1803 5.07812 19.1803H7.89062C8.3221 19.1803 8.67187 18.8305 8.67187 18.3991V12.0319H11.4062V18.3991C11.4062 18.8305 11.756 19.1803 12.1875 19.1803H14.9219C16.645 19.1803 18.0469 17.7784 18.0469 16.0553C18.0469 15.6238 17.6971 15.2741 17.2656 15.2741C16.8341 15.2741 16.4844 15.6238 16.4844 16.0553C16.4844 16.9169 15.7834 17.6178 14.9219 17.6178H12.9687V11.2506C12.9687 10.8191 12.619 10.4694 12.1875 10.4694H7.89062C7.45914 10.4694 7.10937 10.8191 7.10937 11.2506V17.6178H5.07812C4.21656 17.6178 3.51562 16.9169 3.51562 16.0553V7.77406C3.51562 7.76625 3.5155 7.75847 3.51527 7.75074L9.52914 1.74875C9.82183 1.50019 10.2511 1.50113 10.5427 1.75089L16.4844 7.73175V12.1491C16.4844 12.5805 16.8341 12.9303 17.2656 12.9303C17.6971 12.9303 18.0469 12.5805 18.0469 12.1491V9.30453L18.6645 9.92628C18.8172 10.08 19.0179 10.1569 19.2187 10.1569C19.4178 10.1569 19.617 10.0812 19.7694 9.92988C20.0755 9.62578 20.0771 9.13113 19.773 8.82503Z"
        fill="white" />
</svg>