<svg width="106" height="39" viewBox="0 0 106 39" fill="none" xmlns="http://www.w3.org/2000/svg">
<path d="M29.7961 31.8491C31.5006 31.8491 32.9099 30.758 32.9099 29.2332V28.2079L29.8766 28.3919C28.4136 28.4971 27.5815 29.1412 27.5815 30.1402C27.5815 31.1918 28.4673 31.8491 29.7961 31.8491ZM28.5076 34.6227C25.7695 34.6227 23.6892 32.8875 23.6892 30.3505C23.6892 27.7872 25.7024 26.3018 29.286 26.0915L32.9099 25.8812V24.9479C32.9099 23.6334 31.9704 22.871 30.494 22.871C29.031 22.871 28.1049 23.5808 27.917 24.6193H24.3334C24.4811 21.8851 26.8567 20.0054 30.6685 20.0054C34.3594 20.0054 36.7619 21.872 36.7619 24.7113V34.3992H32.977V32.2434H32.8965C32.0912 33.742 30.3061 34.6227 28.5076 34.6227Z" fill="white"/>
<path d="M47.5907 20.0842C51.2414 20.0842 53.4828 22.8053 53.4828 27.3535C53.4828 31.8885 51.2548 34.6227 47.6578 34.6227C45.564 34.6227 43.9534 33.6237 43.1884 32.0331H43.1078V39H39.1887V20.3077H43.0541V22.7658H43.1347C43.9131 21.1095 45.5103 20.0842 47.5907 20.0842ZM46.2754 31.5336C48.2349 31.5336 49.4697 29.9167 49.4697 27.3535C49.4697 24.8033 48.2349 23.1602 46.2754 23.1602C44.3561 23.1602 43.0944 24.8296 43.0944 27.3535C43.0944 29.9036 44.3561 31.5336 46.2754 31.5336Z" fill="white"/>
<path d="M82.3132 31.8491C84.0178 31.8491 85.4271 30.758 85.4271 29.2332V28.2079L82.3938 28.3919C80.9308 28.4971 80.0986 29.1412 80.0986 30.1402C80.0986 31.1918 80.9845 31.8491 82.3132 31.8491ZM81.0247 34.6227C78.2867 34.6227 76.2063 32.8875 76.2063 30.3505C76.2063 27.7872 78.2196 26.3018 81.8032 26.0915L85.4271 25.8812V24.9479C85.4271 23.6334 84.4875 22.871 83.0112 22.871C81.5482 22.871 80.6221 23.5808 80.4342 24.6193H76.8506C76.9982 21.8851 79.3739 20.0054 83.1856 20.0054C86.8766 20.0054 89.2791 21.872 89.2791 24.7113V34.3992H85.4942V32.2434H85.4137C84.6083 33.742 82.8233 34.6227 81.0247 34.6227Z" fill="white"/>
<path d="M100.108 20.0842C103.759 20.0842 106 22.8053 106 27.3535C106 31.8885 103.772 34.6227 100.175 34.6227C98.0812 34.6227 96.4706 33.6237 95.7055 32.0331H95.625V39H91.7059V20.3077H95.5713V22.7658H95.6518C96.4303 21.1095 98.0275 20.0842 100.108 20.0842ZM98.7925 31.5336C100.752 31.5336 101.987 29.9167 101.987 27.3535C101.987 24.8033 100.752 23.1602 98.7925 23.1602C96.8732 23.1602 95.6116 24.8296 95.6116 27.3535C95.6116 29.9036 96.8732 31.5336 98.7925 31.5336Z" fill="white"/>
<path fill-rule="evenodd" clip-rule="evenodd" d="M65.6278 19.1006V32.1761C65.6278 32.1761 66.3962 36.1602 70.1069 35.8808C73.8177 35.6014 74.5861 32.6119 74.5861 32.6119L74.7897 19.5364C74.7897 19.5364 74.1325 15.1285 70.1069 14.96C66.8024 14.8216 65.594 18.4873 65.6278 19.1006Z" fill="white"/>
<path fill-rule="evenodd" clip-rule="evenodd" d="M57.3659 5.1279L81.4291 1.49571C81.4291 1.49571 86.3722 1.40897 86.9482 6.40984C87.5242 11.4107 83.6368 11.7513 83.6368 11.7513L58.2489 11.9649C58.2489 11.9649 54.9445 11.4109 54.9375 8.54642C54.9304 5.68191 57.3659 5.1279 57.3659 5.1279Z" fill="white"/>
<path fill-rule="evenodd" clip-rule="evenodd" d="M5.95385 0.205051L27.3557 9.7762C27.3557 9.7762 30.8712 10.6267 30.4724 14.972C30.0737 19.3173 26.7597 18.7085 26.7323 18.8004C26.7049 18.8923 21.3299 17.7066 21.3299 17.7066L20.5778 32.1558C20.5778 32.1558 18.878 36.8273 16.1353 35.755C13.3925 34.6828 12.8655 32.9812 12.1788 31.408C11.8723 30.706 12.1788 14.9562 12.1788 14.9562L3.01625 12.7128C3.01625 12.7128 -1.54613 11.1955 0.551453 4.85389C2.64904 -1.48768 5.95385 0.205051 5.95385 0.205051Z" fill="white"/>
</svg>
